<svg xmlns="http://www.w3.org/2000/svg" width="1024" height="1024" viewBox="0 0 1024 1024">

<defs>
  <radialGradient id="bg" cx="50%" cy="36%" r="78%">
    <stop offset="0%" stop-color="#16336B"/>
    <stop offset="100%" stop-color="#071531"/>
  </radialGradient>
  <radialGradient id="ball" cx="36%" cy="30%" r="80%">
    <stop offset="0%" stop-color="#FFFDF6"/>
    <stop offset="55%" stop-color="#F5EFDD"/>
    <stop offset="100%" stop-color="#DCD3B8"/>
  </radialGradient>
</defs>
<rect width="1024" height="1024" fill="url(#bg)"/>

<circle cx="512" cy="512" r="300" fill="url(#ball)"/>
<ellipse cx="512" cy="746.0" rx="195.0" ry="36.0" fill="#0B1E3D" opacity="0.15"/>
<ellipse cx="407.0" cy="398.0" rx="96.0" ry="60.0" fill="#FFFFFF" opacity="0.22"/>
<clipPath id="ballclip"><circle cx="512" cy="512" r="296"/></clipPath>
<g clip-path="url(#ballclip)">
<path d="M 728.0,254.0 C 536.0,422.0 536.0,602.0 728.0,770.0" fill="none" stroke="#B23A2E" stroke-width="11"/>
<line x1="669.7" y1="279.4" x2="701.6" y2="309.7" stroke="#B23A2E" stroke-width="9" stroke-linecap="round"/>
<line x1="623.2" y1="335.6" x2="659.1" y2="361.0" stroke="#B23A2E" stroke-width="9" stroke-linecap="round"/>
<line x1="589.5" y1="393.3" x2="629.3" y2="411.9" stroke="#B23A2E" stroke-width="9" stroke-linecap="round"/>
<line x1="568.9" y1="452.2" x2="611.8" y2="462.2" stroke="#B23A2E" stroke-width="9" stroke-linecap="round"/>
<line x1="562.0" y1="512.0" x2="606.0" y2="512.0" stroke="#B23A2E" stroke-width="9" stroke-linecap="round"/>
<line x1="568.9" y1="571.8" x2="611.8" y2="561.8" stroke="#B23A2E" stroke-width="9" stroke-linecap="round"/>
<line x1="589.5" y1="630.7" x2="629.3" y2="612.1" stroke="#B23A2E" stroke-width="9" stroke-linecap="round"/>
<line x1="623.2" y1="688.4" x2="659.1" y2="663.0" stroke="#B23A2E" stroke-width="9" stroke-linecap="round"/>
<line x1="669.7" y1="744.6" x2="701.6" y2="714.3" stroke="#B23A2E" stroke-width="9" stroke-linecap="round"/>
<path d="M 296.0,254.0 C 488.0,422.0 488.0,602.0 296.0,770.0" fill="none" stroke="#B23A2E" stroke-width="11"/>
<line x1="322.4" y1="309.7" x2="354.3" y2="279.4" stroke="#B23A2E" stroke-width="9" stroke-linecap="round"/>
<line x1="364.9" y1="361.0" x2="400.8" y2="335.6" stroke="#B23A2E" stroke-width="9" stroke-linecap="round"/>
<line x1="394.7" y1="411.9" x2="434.5" y2="393.3" stroke="#B23A2E" stroke-width="9" stroke-linecap="round"/>
<line x1="412.2" y1="462.2" x2="455.1" y2="452.2" stroke="#B23A2E" stroke-width="9" stroke-linecap="round"/>
<line x1="418.0" y1="512.0" x2="462.0" y2="512.0" stroke="#B23A2E" stroke-width="9" stroke-linecap="round"/>
<line x1="412.2" y1="561.8" x2="455.1" y2="571.8" stroke="#B23A2E" stroke-width="9" stroke-linecap="round"/>
<line x1="394.7" y1="612.1" x2="434.5" y2="630.7" stroke="#B23A2E" stroke-width="9" stroke-linecap="round"/>
<line x1="364.9" y1="663.0" x2="400.8" y2="688.4" stroke="#B23A2E" stroke-width="9" stroke-linecap="round"/>
<line x1="322.4" y1="714.3" x2="354.3" y2="744.6" stroke="#B23A2E" stroke-width="9" stroke-linecap="round"/>
</g>
<circle cx="512" cy="512" r="300" fill="none" stroke="#DCD3B8" stroke-width="3" opacity="0.6"/>
<g opacity="0.97">
<path d="M 116.0,266.0 L 116.0,116.0 L 266.0,116.0" fill="none" stroke="#29C5F6" stroke-width="26" stroke-linecap="round" stroke-linejoin="round"/>
<path d="M 908.0,266.0 L 908.0,116.0 L 758.0,116.0" fill="none" stroke="#29C5F6" stroke-width="26" stroke-linecap="round" stroke-linejoin="round"/>
<path d="M 116.0,758.0 L 116.0,908.0 L 266.0,908.0" fill="none" stroke="#29C5F6" stroke-width="26" stroke-linecap="round" stroke-linejoin="round"/>
<path d="M 908.0,758.0 L 908.0,908.0 L 758.0,908.0" fill="none" stroke="#29C5F6" stroke-width="26" stroke-linecap="round" stroke-linejoin="round"/>
</g>
<circle cx="512" cy="512" r="318" fill="none" stroke="#29C5F6" stroke-width="4" opacity="0.35"/>
</svg>